HIERARCHY
ROOT hip
{
	OFFSET 0.000000 0.000000 0.000000 
	CHANNELS 6 Xposition Yposition Zposition Xrotation Zrotation Yrotation
	JOINT abdomen
	{
		OFFSET 0.000000 3.402643 0.000000 
		CHANNELS 3 Xrotation Zrotation Yrotation
		JOINT chest
		{
			OFFSET 0.000000 8.438565 -0.680529 
			CHANNELS 3 Xrotation Zrotation Yrotation
			JOINT neck
			{
				OFFSET 0.000000 10.207942 -0.272212 
				CHANNELS 3 Xrotation Zrotation Yrotation
				JOINT head
				{
					OFFSET 0.000000 3.130431 0.000000 
					CHANNELS 3 Xrotation Zrotation Yrotation
					End Site
					{
						OFFSET 0.000000 3.130435 0.000000 
					}
				}
			}
			JOINT lCollar
			{
				OFFSET 3.470700 6.669187 -0.816635 
				CHANNELS 3 Yrotation Zrotation Xrotation
				JOINT lShldr
				{
					OFFSET 3.198488 0.000000 0.000000 
					CHANNELS 3 Zrotation Yrotation Xrotation
					JOINT lForeArm
					{
						OFFSET 10.139888 0.000000 0.000000 
						CHANNELS 3 Yrotation Zrotation Xrotation
						JOINT lHand
						{
							OFFSET 8.370511 0.000000 0.000000 
							CHANNELS 3 Zrotation Yrotation Xrotation
							End Site
							{
								OFFSET 4.083176 0.000000 0.000000 
							}
						}
					}
				}
			}
			JOINT rCollar
			{
				OFFSET -3.470700 6.669187 -0.816635 
				CHANNELS 3 Yrotation Zrotation Xrotation
				JOINT rShldr
				{
					OFFSET -3.198488 0.000000 0.000000 
					CHANNELS 3 Zrotation Yrotation Xrotation
					JOINT rForeArm
					{
						OFFSET -10.139888 0.000000 0.000000 
						CHANNELS 3 Yrotation Zrotation Xrotation
						JOINT rHand
						{
							OFFSET -8.370511 0.000000 0.000000 
							CHANNELS 3 Zrotation Yrotation Xrotation
							End Site
							{
								OFFSET -4.083176 0.000000 0.000000 
							}
						}
					}
				}
			}
		}
	}
	JOINT lThigh
	{
		OFFSET 5.308129 -1.633274 1.361059 
		CHANNELS 3 Xrotation Zrotation Yrotation
		JOINT lShin
		{
			OFFSET -2.041588 -20.007561 0.000000 
			CHANNELS 3 Xrotation Zrotation Yrotation
			JOINT lFoot
			{
				OFFSET 0.000000 -19.190928 -1.224953 
				CHANNELS 3 Xrotation Yrotation Zrotation
				End Site
				{
					OFFSET 0.000000 -2.449906 4.627600 
				}
			}
		}
	}
	JOINT rThigh
	{
		OFFSET -5.308129 -1.633274 1.361059 
		CHANNELS 3 Xrotation Zrotation Yrotation
		JOINT rShin
		{
			OFFSET 2.041588 -20.007561 0.000000 
			CHANNELS 3 Xrotation Zrotation Yrotation
			JOINT rFoot
			{
				OFFSET 0.000000 -19.190928 -1.224953 
				CHANNELS 3 Xrotation Yrotation Zrotation
				End Site
				{
					OFFSET 0.000000 -2.449906 4.627600 
				}
			}
		}
	}
}
MOTION
Frames: 11
Frame Time: 0.033333
-43.734951 54.213978 121.941414 -29.257813 11.064453 22.345621 41.081142 -35.677032 3.298659 -19.658205 1.660156 -10.000001 51.063168 8.107644 2.471410 -55.888672 2.500000 -23.593323 2.000000 -2.000000 0.000000 -63.417973 40.771481 -69.218750 -80.072548 -0.104956 -2.523356 55.119743 22.536263 39.988926 -2.000000 2.000000 0.000000 -12.343750 -27.373047 -26.972658 121.835846 -2.044389 -2.570166 -63.312378 -3.775383 53.769432 7.270067 4.898407 -2.927653 39.825100 -4.474188 -3.610097 29.078003 1.036560 24.905727 20.750704 -14.208840 -34.560238 16.162626 4.415835 1.474463 16.746119 -17.984024 2.383664 
-43.328896 54.347900 120.510025 -31.035154 7.080079 17.550032 40.221195 -35.390999 3.423962 -19.492189 1.132813 -10.253906 51.063168 8.107644 2.471410 -55.654297 3.007812 -21.523438 2.000000 -2.000000 0.000000 -65.273430 40.283203 -68.099152 -84.469238 0.046502 -2.610396 57.118725 23.779160 38.330269 -2.000000 2.000000 0.000000 -7.021484 -27.744141 -31.669924 122.011620 -2.054138 -2.570734 -63.864727 0.214764 56.071548 13.602383 10.710775 -7.442849 42.608696 -3.810433 -3.597250 27.846745 2.128239 14.537612 20.878531 -11.728485 -31.269367 11.416078 4.795650 1.109453 19.090902 -16.546919 1.389717 
-42.870884 53.623112 118.835571 -31.718750 3.574219 14.658813 40.873177 -33.254272 2.822053 -19.326172 0.800781 -10.322265 51.063168 8.107644 2.471410 -58.828125 3.261719 -20.996094 2.000000 -2.000000 0.000000 -63.710938 37.910156 -64.843750 -89.035721 0.219297 -2.835535 56.623531 22.532011 38.889729 -2.000000 2.000000 0.000000 -4.501953 -25.458982 -35.742184 121.303368 -2.025022 -2.734927 -64.435867 2.873872 56.310253 17.822273 16.064144 -9.565375 44.033749 -3.850372 -3.553918 30.908747 2.474046 7.411026 20.587311 -8.955180 -29.499048 7.243275 5.233033 0.813787 15.767061 -16.842249 -1.469482 
-42.372490 53.749161 116.963287 -31.123045 1.044922 14.121274 42.421043 -29.959726 1.613420 -18.984375 0.449219 -10.195236 51.063168 8.107644 2.471410 -64.101563 3.642578 -21.142578 2.000000 -2.000000 0.000000 -61.582031 34.277344 -61.332394 -94.300972 0.410894 -2.905320 54.587292 20.339487 40.056274 -2.000000 2.000000 0.000000 -3.730469 -22.832031 -40.244133 120.423996 -2.162961 -2.381492 -65.385460 5.248709 55.157017 17.205162 17.360569 -7.057359 44.734386 -3.839347 -3.771354 16.292530 4.062919 4.721961 17.590021 -8.339659 -30.397446 6.335742 5.257774 0.709426 16.848303 -15.399785 -3.398668 
-41.844944 53.717655 114.935905 -30.068357 -1.376953 14.306464 43.757385 -26.806211 0.696539 -18.623047 0.273438 -9.873047 51.063168 8.107644 2.471410 -67.802734 3.730468 -19.941406 2.000000 -2.000000 0.000000 -60.830082 31.562498 -61.054684 -97.983238 0.740677 -2.953785 53.061779 18.926849 40.767548 -2.000000 2.000000 0.000000 -3.320313 -21.250000 -44.066036 120.256966 -1.814499 -2.654272 -66.439529 6.072428 54.726646 17.350039 19.760544 -2.484092 42.431477 -3.906384 -3.443112 1.324104 4.485777 4.926750 15.165198 -6.709020 -32.470093 3.166151 5.253563 0.463637 18.603910 -14.532732 -5.199008 
-41.299564 53.686142 112.797791 -28.720703 -3.408203 15.009184 44.813118 -25.420076 0.019091 -18.632813 0.097656 -9.902324 51.063168 8.107644 2.471410 -66.875000 4.179688 -17.382813 2.000000 -2.000000 0.000000 -60.214844 30.820313 -63.847652 -98.705811 0.409765 -2.924810 52.927803 18.539173 40.906044 -2.000000 2.000000 0.000000 -3.427734 -21.396484 -44.193016 120.608215 -1.834563 -2.645657 -66.246140 4.312674 53.751415 15.946130 21.227798 0.456955 40.315521 -3.788740 -3.405690 -6.462873 3.738420 4.150322 15.697453 -3.448814 -35.073269 -5.956420 5.279932 -0.332554 22.929209 -13.135176 -7.152999 
-40.747822 53.827942 110.594421 -27.705078 -4.677734 15.243343 45.104080 -25.939075 -0.092742 -18.808596 0.097656 -10.253902 51.063168 8.107644 2.471410 -63.466801 4.970703 -14.560548 2.000000 -2.000000 0.000000 -58.544926 31.943357 -67.500000 -97.812599 0.730778 -2.786982 53.408882 18.933550 40.755718 -2.000000 2.000000 0.000000 -2.910156 -22.587889 -42.972500 121.298820 -2.120965 -2.936054 -66.061447 1.065942 53.144314 13.277121 21.077671 1.250982 38.566360 -4.061872 -3.337835 -7.911019 4.130998 5.279302 15.514054 -1.475995 -35.583527 -14.248840 5.205515 -1.086036 27.785753 -13.177119 -8.173577 
-40.201061 54.040653 108.369522 -26.826170 -4.560547 14.403520 45.227261 -27.185589 -0.356917 -19.335938 0.273438 -10.576171 51.063168 8.107644 2.471410 -60.986328 5.146484 -12.490233 2.000000 -2.000000 0.000000 -58.945316 33.779293 -71.298828 -96.595924 0.323151 -2.900229 54.267990 19.649368 40.631508 -2.000000 2.000000 0.000000 -1.103516 -24.199221 -40.595707 122.181404 -2.055966 -2.707386 -66.366959 -0.886896 52.235619 11.001317 19.650620 1.592067 37.164188 -4.140219 -3.248727 -6.128013 5.050085 5.980972 13.442572 -3.223838 -34.632664 -1.235626 5.273297 0.084319 25.165880 -12.453671 -6.775305 
-39.670609 54.213978 106.167290 -25.908201 -3.642578 13.339224 45.372662 -28.711138 -0.477332 -19.873049 0.283203 -10.937499 51.063168 8.107644 2.471410 -61.074219 3.945312 -11.376954 2.000000 -2.000000 0.000000 -64.160156 36.123043 -75.423935 -95.004356 0.429828 -2.916196 55.707668 21.860916 39.689610 -2.000000 2.000000 0.000000 1.894531 -26.943361 -40.546879 122.882454 -2.010902 -2.978222 -68.413177 0.605865 50.715038 8.416933 16.715555 1.519788 35.389828 -4.306496 -3.086448 -2.401929 6.293987 5.874334 10.899937 -6.600246 -31.302614 21.261145 4.505161 1.722311 26.085691 -12.450902 -3.804123 
-39.168045 54.300625 104.032303 -25.009766 -2.392578 12.528891 45.293175 -30.667070 -0.596451 -20.390625 0.468750 -11.269435 51.063168 8.107644 2.471410 -62.275391 1.962891 -11.034822 2.000000 -2.000000 0.000000 -72.148438 38.203121 -79.935364 -92.899612 0.352819 -2.726002 57.707024 24.884504 38.556324 -2.000000 2.000000 0.000000 4.951172 -30.595707 -41.152340 124.114029 -2.125907 -2.682106 -71.133003 3.076854 49.034172 6.454082 13.855653 1.541834 33.426376 -4.428475 -2.969670 1.077184 6.834535 5.535736 8.833005 -9.567880 -27.652672 43.465328 3.188932 3.335479 28.481100 -10.154116 -2.154904 
-38.704483 54.332146 102.008644 -23.916016 -1.142578 12.607228 45.371262 -32.435555 -0.662462 -20.917971 0.478516 -11.796875 51.063168 8.107644 2.471410 -63.076176 0.820312 -11.865233 2.000000 -2.000000 0.000000 -77.099609 40.078121 -81.689453 -91.664223 0.499493 -2.558527 58.066090 26.389320 37.764515 -2.000000 2.000000 0.000000 9.511718 -33.525391 -40.937496 125.001160 -1.964132 -2.604278 -73.513206 4.655043 48.653000 4.882869 10.868487 0.327711 31.351719 -4.405049 -2.997380 2.045088 7.468763 3.896856 8.850263 -10.346772 -24.951645 56.431561 2.214505 3.781493 29.957756 -7.010961 -0.967783 
